<?xml version="1.0" encoding="UTF-8" standalone="no"?>
<!-- Uploaded to: SVG Repo, www.svgrepo.com, Transformed by: SVG Repo Mixer Tools -->

<svg
   width="606.6568"
   height="566.75"
   viewBox="-5 -4 107.041 99.999682"
   aria-hidden="true"
   role="img"
   class="iconify iconify--noto"
   preserveAspectRatio="xMidYMid"
   fill="#000000"
   version="1.1"
   id="svg188"
   sodipodi:docname="farmer.svg"
   inkscape:version="1.2.2 (b0a8486541, 2022-12-01)"
   xmlns:inkscape="http://www.inkscape.org/namespaces/inkscape"
   xmlns:sodipodi="http://sodipodi.sourceforge.net/DTD/sodipodi-0.dtd"
   xmlns="http://www.w3.org/2000/svg"
   xmlns:svg="http://www.w3.org/2000/svg">
  <defs
     id="defs192" />
  <sodipodi:namedview
     id="namedview190"
     pagecolor="#ffffff"
     bordercolor="#111111"
     borderopacity="1"
     inkscape:showpageshadow="0"
     inkscape:pageopacity="0"
     inkscape:pagecheckerboard="1"
     inkscape:deskcolor="#d1d1d1"
     showgrid="false"
     showborder="true"
     inkscape:zoom="0.74069435"
     inkscape:cx="297.0186"
     inkscape:cy="268.66682"
     inkscape:window-width="1920"
     inkscape:window-height="1008"
     inkscape:window-x="0"
     inkscape:window-y="0"
     inkscape:window-maximized="1"
     inkscape:current-layer="SVGRepo_iconCarrier" />
  <g
     id="SVGRepo_bgCarrier"
     stroke-width="0"
     transform="translate(-2.9374584,-6.12)" />
  <g
     id="SVGRepo_tracerCarrier"
     stroke-linecap="round"
     stroke-linejoin="round"
     transform="translate(-2.9374584,-6.12)" />
  <g
     id="SVGRepo_iconCarrier"
     transform="translate(-2.9374584,-6.12)">
    <path
       d="M 51.47,37.93 C 25.35,37.24 -5.38,8.76 5.01,39.2 10.99,56.7 31.21,65.23 51.47,64.97 71.73,65.23 91.95,56.71 97.93,39.2 108.32,8.76 77.59,37.24 51.47,37.93 Z"
       fill="#7a5000"
       id="path4" />
    <path
       d="m 86.54,80.78 c -1.04,-1.98 -0.2,-3.94 3.07,-7.26 4.06,-4.11 9.41,-14.79 4.1,-25.56 0,0 -0.84,-1.62 -0.83,-1.66 l -0.75,0.83 c -0.15,-0.3 -0.31,-0.61 -0.49,-0.91 -1.15,-0.16 -78.99,-0.16 -80.14,0 -0.32,0.56 -0.6,1.12 -0.86,1.68 L 9.65,47.82 c -4.9,11.84 -0.45,21.23 3.87,25.69 2.72,2.81 4.18,5.01 3.06,7.31 -0.56,1.15 -1.43,1.82 -2.67,2.07 l -2.15,0.42 1.17,1.81 c 0.42,0.66 1,1.21 1.67,1.6 1.87,1.09 4.13,1.36 5.71,1.4 0.18,0 0.44,0.2 0.83,0.62 5.08,5.53 9.08,7.29 21.42,7.74 l 17.85,0.01 C 72.89,96.05 76.9,94.3 82,88.75 c 0.39,-0.43 0.65,-0.62 0.83,-0.62 1.58,-0.04 3.85,-0.31 5.71,-1.4 0.67,-0.39 1.24,-0.94 1.67,-1.6 l 1.17,-1.81 -2.15,-0.42 c -1.19,-0.25 -2.07,-0.94 -2.69,-2.12 z"
       fill="#543930"
       id="path6" />
    <radialGradient
       id="IconifyId17ecdb2904d178eab8516"
       cx="108.89"
       cy="44.966"
       r="22.987"
       gradientTransform="matrix(0.9656,-0.2599,0.1277,0.4743,-38.69,89.913)"
       gradientUnits="userSpaceOnUse">
      <stop
         offset=".728"
         stop-color="#6d4c41"
         stop-opacity="0"
         id="stop8" />
      <stop
         offset="1"
         stop-color="#6d4c41"
         id="stop10" />
    </radialGradient>
    <path
       d="m 52.3,96.39 -0.05,-9.33 28.21,-2.37 2.02,3.53 c 0,0 -3.98,4.76 -8.43,6.25 -3.31,1.11 -6.93,1.84 -13.86,2.02 z"
       fill="url(#IconifyId17ecdb2904d178eab8516)"
       id="path13"
       style="fill:url(#IconifyId17ecdb2904d178eab8516)" />
    <radialGradient
       id="IconifyId17ecdb2904d178eab8517"
       cx="109.017"
       cy="44.881001"
       r="22.841999"
       gradientTransform="matrix(-0.9656,-0.2599,-0.1277,0.4743,141.87,90.071)"
       gradientUnits="userSpaceOnUse">
      <stop
         offset=".728"
         stop-color="#6d4c41"
         stop-opacity="0"
         id="stop15" />
      <stop
         offset="1"
         stop-color="#6d4c41"
         id="stop17" />
    </radialGradient>
    <path
       d="m 50.64,96.39 0.05,-9.27 -28.03,-2.36 -2.01,3.51 c 0,0 3.95,4.73 8.38,6.21 3.29,1.1 6.89,1.83 13.77,2.01 z"
       fill="url(#IconifyId17ecdb2904d178eab8517)"
       id="path20"
       style="fill:url(#IconifyId17ecdb2904d178eab8517)" />
    <radialGradient
       id="IconifyId17ecdb2904d178eab8518"
       cx="106.37"
       cy="61.688"
       r="26.407"
       gradientTransform="matrix(-0.0746,-0.9972,0.8311,-0.0622,31.463,176.223)"
       gradientUnits="userSpaceOnUse">
      <stop
         offset=".725"
         stop-color="#6d4c41"
         stop-opacity="0"
         id="stop24" />
      <stop
         offset="1"
         stop-color="#6d4c41"
         id="stop26" />
    </radialGradient>
    <path
       d="m 91.03,71.78 c -1.61,2.15 -4.27,4.58 -4.57,6.47 C 89.44,62.09 76.43,64.01 73.74,56.63 73.2,55.14 72.7,53.61 72.64,52.02 c -0.05,-1.19 7.31,-12.45 8,-13.46 0.84,-1.24 12.93,8.95 12.93,8.95 -0.01,0.02 6.81,11.78 -2.54,24.27 z"
       fill="url(#IconifyId17ecdb2904d178eab8518)"
       id="path29"
       style="fill:url(#IconifyId17ecdb2904d178eab8518)" />
    <radialGradient
       id="IconifyId17ecdb2904d178eab8519"
       cx="90.954002"
       cy="49.198002"
       r="9.1610003"
       gradientTransform="matrix(-0.9437,0.3361,-0.2455,-0.7109,188.116,83.09)"
       gradientUnits="userSpaceOnUse">
      <stop
         offset=".663"
         stop-color="#6d4c41"
         id="stop31" />
      <stop
         offset="1"
         stop-color="#6d4c41"
         stop-opacity="0"
         id="stop33" />
    </radialGradient>
    <path
       d="M 80.18,84.32 C 73.07,73.97 90.85,71.99 90.85,71.99 c -2.33,2.28 -5.43,6.1 -4.36,8.54 1.27,2.88 4.94,2.65 4.94,2.65 0,0 -6.43,5.88 -11.25,1.14 z"
       fill="url(#IconifyId17ecdb2904d178eab8519)"
       id="path36"
       style="fill:url(#IconifyId17ecdb2904d178eab8519)" />
    <path
       d="M 78.31,51.78 H 24.63 c -5.79,0 -10.52,5.04 -10.52,11.21 0,6.17 4.73,11.21 10.52,11.21 h 53.69 c 5.79,0 10.52,-5.04 10.52,-11.21 0,-6.17 -4.74,-11.21 -10.53,-11.21 z"
       fill="#7a5000"
       id="path38" />
    <path
       d="m 51.47,13.11 c -17.1,0 -32.93,18.28 -32.93,44.59 0,26.17 16.31,39.1 32.93,39.1 C 68.09,96.8 84.4,83.87 84.4,57.7 84.4,31.39 68.57,13.11 51.47,13.11 Z"
       fill="#ee9820"
       id="path40" />
    <g
       fill="#404040"
       id="g46">
      <ellipse
         cx="36.169998"
         cy="60.009998"
         rx="4.8400002"
         ry="5.0100002"
         id="ellipse42" />
      <ellipse
         cx="66.769997"
         cy="60.009998"
         rx="4.8400002"
         ry="5.0100002"
         id="ellipse44" />
    </g>
    <path
       d="m 59.85,77.04 c -3.13,1.86 -13.39,1.86 -16.52,0 -1.8,-1.07 -3.63,0.57 -2.89,2.2 0.73,1.61 6.33,5.33 11.17,5.33 4.84,0 10.36,-3.72 11.1,-5.33 0.75,-1.64 -1.06,-3.27 -2.86,-2.2 z"
       fill="#795548"
       id="path48" />
    <g
       fill="#6d4c41"
       id="g54">
      <path
         d="m 43.36,51.13 c -0.91,-1.21 -3.02,-2.96 -7.1,-2.96 -4.08,0 -6.19,1.75 -7.1,2.96 -0.4,0.53 -0.3,1.15 -0.02,1.52 0.26,0.35 1.02,0.67 1.87,0.38 0.85,-0.29 2.49,-1.14 5.26,-1.16 2.76,0.02 4.41,0.87 5.26,1.16 0.85,0.29 1.61,-0.03 1.87,-0.38 0.26,-0.37 0.36,-0.99 -0.04,-1.52 z"
         id="path50" />
      <path
         d="m 73.79,51.13 c -0.91,-1.21 -3.02,-2.96 -7.1,-2.96 -4.08,0 -6.19,1.75 -7.1,2.96 -0.4,0.53 -0.3,1.15 -0.02,1.52 0.26,0.35 1.02,0.67 1.87,0.38 0.85,-0.29 2.49,-1.14 5.26,-1.16 2.76,0.02 4.41,0.87 5.26,1.16 0.85,0.29 1.61,-0.03 1.87,-0.38 0.26,-0.37 0.36,-0.99 -0.04,-1.52 z"
         id="path52" />
    </g>
    <path
       d="m 55.26,69.09 c -0.1,-0.04 -0.21,-0.07 -0.32,-0.08 H 48 c -0.11,0.01 -0.21,0.04 -0.32,0.08 -0.63,0.26 -0.98,0.91 -0.68,1.6 0.3,0.69 1.68,2.64 4.47,2.64 2.79,0 4.17,-1.95 4.47,-2.64 0.3,-0.69 -0.05,-1.34 -0.68,-1.6 z"
       fill="#7a5000"
       id="path56" />
    <g
       id="g72">
      <radialGradient
         id="IconifyId17ecdb2904d178eab8520"
         cx="106.533"
         cy="61.498001"
         r="26.233"
         gradientTransform="matrix(0.0746,-0.9972,-0.8311,-0.0622,71.472,176.564)"
         gradientUnits="userSpaceOnUse">
        <stop
           offset=".725"
           stop-color="#6d4c41"
           stop-opacity="0"
           id="stop58" />
        <stop
           offset="1"
           stop-color="#6d4c41"
           id="stop60" />
      </radialGradient>
      <path
         d="m 12.16,71.94 c 1.61,2.13 4.25,4.55 4.54,6.43 -2.96,-16.05 9.97,-14.15 12.64,-21.48 0.54,-1.48 1.03,-3 1.1,-4.58 0.05,-1.18 -7.27,-12.37 -7.94,-13.37 -0.83,-1.23 -12.85,8.9 -12.85,8.9 0,0 -6.25,12.54 2.51,24.1 z"
         fill="url(#IconifyId17ecdb2904d178eab8520)"
         id="path63"
         style="fill:url(#IconifyId17ecdb2904d178eab8520)" />
      <radialGradient
         id="IconifyId17ecdb2904d178eab8521"
         cx="91.193001"
         cy="49.087002"
         r="9.1029997"
         gradientTransform="matrix(0.9437,0.3361,0.2455,-0.7109,-85.133,83.043)"
         gradientUnits="userSpaceOnUse">
        <stop
           offset=".663"
           stop-color="#6d4c41"
           id="stop65" />
        <stop
           offset="1"
           stop-color="#6d4c41"
           stop-opacity="0"
           id="stop67" />
      </radialGradient>
      <path
         d="M 22.94,84.4 C 30,74.12 12.34,72.15 12.34,72.15 c 2.32,2.27 5.4,6.07 4.33,8.48 -1.26,2.86 -4.91,2.63 -4.91,2.63 0,0 6.39,5.85 11.18,1.14 z"
         fill="url(#IconifyId17ecdb2904d178eab8521)"
         id="path70"
         style="fill:url(#IconifyId17ecdb2904d178eab8521)" />
    </g>
    <path
       d="m 90.86,28.86 c -0.16,-0.24 -0.34,-0.5 -0.53,-0.75 -0.35,0.06 -0.74,0.13 -1.12,0.19 -0.38,-0.72 -0.72,-1.29 -0.97,-1.66 -0.06,-0.08 -4.83,0.82 -11.92,1.74 H 24.58 c -6.01,-0.81 -10.02,-1.61 -10.34,-1.74 -0.2,0.6 -0.35,1.18 -0.46,1.74 h -1.02 c -1.42,4.01 -0.57,4.92 0.03,6.61 -2.48,2.1 -5.84,6.67 -3.45,12.38 2.41,5.78 8.03,6.38 8.03,6.38 -0.61,10.55 2.72,15.67 2.72,15.67 0,0 4.13,-18.12 3.75,-20.89 0,0 7.62,-1.51 16.27,-6.46 5.85,-3.35 9.84,-7.27 16.41,-8.75 10,-2.25 12.23,4.99 12.23,4.99 0,0 9.25,-1.78 12.05,11.07 1.15,5.29 1.64,14.12 2.27,19.49 -0.05,-0.47 3.44,-6.28 4.05,-12.18 0.17,-1.64 2.07,-5.04 3.43,-8.32 0.57,1.07 1.22,2.36 1.41,3.01 0,0 1.1,-4.46 1.18,-4.77 2.2,-8.78 -0.55,-15.13 -2.28,-17.75 z"
       fill="#543930"
       id="path74" />
    <g
       id="g90">
      <radialGradient
         id="IconifyId17ecdb2904d178eab8522"
         cx="26.719999"
         cy="83.07"
         r="16.886"
         gradientTransform="matrix(0.9907,0.1371,0.1915,-1.4003,-15.657,157.665)"
         gradientUnits="userSpaceOnUse">
        <stop
           offset=".598"
           stop-color="#6d4c41"
           stop-opacity="0"
           id="stop76" />
        <stop
           offset="1"
           stop-color="#6d4c41"
           id="stop78" />
      </radialGradient>
      <path
         d="M 12.56,35.13 C 10.19,37.25 7,41.97 9.35,47.81 c 1.77,4.41 8.09,6.33 8.09,6.33 0,0.02 1.26,0.4 1.91,0.4 l 1.48,-22.02 c -3.03,0 -5.94,0.91 -7.82,2.23 0.02,0.03 -0.46,0.35 -0.45,0.38 z"
         fill="url(#IconifyId17ecdb2904d178eab8522)"
         id="path81"
         style="fill:url(#IconifyId17ecdb2904d178eab8522)" />
      <radialGradient
         id="IconifyId17ecdb2904d178eab8523"
         cx="76.736"
         cy="80.422997"
         r="24.990999"
         gradientTransform="matrix(0.3076,0.9515,0.706,-0.2282,-3.648,-7.087)"
         gradientUnits="userSpaceOnUse">
        <stop
           offset=".699"
           stop-color="#6d4c41"
           stop-opacity="0"
           id="stop83" />
        <stop
           offset="1"
           stop-color="#6d4c41"
           id="stop85" />
      </radialGradient>
      <path
         d="m 86.75,57.5 c 0.16,-1.55 4.34,-3.6 6.14,-10.26 0.19,-0.71 0.35,-1.43 0.5,-2.15 C 94.85,37 92.23,29.57 90.6,27.11 88.34,23.7 78.84,30.48 80.46,33.19 c 5.06,8.47 4.9,16.19 6.29,24.31 z"
         fill="url(#IconifyId17ecdb2904d178eab8523)"
         id="path88"
         style="fill:url(#IconifyId17ecdb2904d178eab8523)" />
    </g>
    <g
       id="g170">
      <linearGradient
         id="IconifyId17ecdb2904d178eab8530"
         gradientUnits="userSpaceOnUse"
         x1="51.471001"
         y1="120.426"
         x2="51.471001"
         y2="96.640999"
         gradientTransform="matrix(1,0,0,-1,0,128)">
        <stop
           offset=".003"
           stop-color="#fff59d"
           id="stop148" />
        <stop
           offset=".553"
           stop-color="#fee565"
           id="stop150" />
        <stop
           offset=".996"
           stop-color="#fdd835"
           id="stop152" />
      </linearGradient>
      <path
         d="M 77.49,29.04 C 72.67,17.05 67.93,7.59 61.86,6.86 60.24,6.67 56,6.13 51.71,6.12 c -4.45,0 -8.95,0.54 -10.62,0.74 -6.07,0.73 -10.81,10.19 -15.64,22.17 -2.62,6.5 54.66,6.5 52.04,0.01 z"
         fill="url(#IconifyId17ecdb2904d178eab8530)"
         id="path155"
         style="fill:url(#IconifyId17ecdb2904d178eab8530)" />
      <linearGradient
         id="IconifyId17ecdb2904d178eab8531"
         gradientUnits="userSpaceOnUse"
         x1="51.470001"
         y1="101.453"
         x2="51.470001"
         y2="72.425003"
         gradientTransform="matrix(1,0,0,-1,0,128)">
        <stop
           offset=".003"
           stop-color="#fff59d"
           id="stop157" />
        <stop
           offset=".553"
           stop-color="#fee565"
           id="stop159" />
        <stop
           offset=".996"
           stop-color="#fdd835"
           id="stop161" />
      </linearGradient>
      <path
         d="m 91.57,24.72 c -9.43,1.71 -25.18,3.7 -39.53,3.76 H 50.9 C 36.55,28.42 20.8,26.43 11.37,24.72 3.23,23.24 2.94,28.56 2.94,28.56 c 0,0 2.58,-3.19 7.11,1.23 7.03,6.86 18.48,17.75 40.77,17.84 0.22,0 0.43,-0.01 0.65,-0.01 0.22,0 0.43,0.01 0.65,0.01 22.3,-0.1 33.74,-10.98 40.77,-17.84 4.53,-4.42 7.11,-1.23 7.11,-1.23 0,0 -0.29,-5.32 -8.43,-3.84 z"
         fill="url(#IconifyId17ecdb2904d178eab8531)"
         id="path164"
         style="fill:url(#IconifyId17ecdb2904d178eab8531)" />
      <g
         id="g168">
        <path
           d="m 51.47,20.37 c -15.18,0 -25.05,6.55 -25.05,6.55 0,0 14.37,1.47 25.05,1.47 10.68,0 25.05,-1.47 25.05,-1.47 0,0 -9.87,-6.55 -25.05,-6.55 z"
           fill="#78909c"
           id="path166" />
      </g>
    </g>
  </g>
</svg>
